<svg width="91" height="30" viewBox="0 0 91 30" fill="none" xmlns="http://www.w3.org/2000/svg">
<path fill-rule="evenodd" clip-rule="evenodd" d="M14.0079 3.33157V6.2979H13.2823H12.5568V3.33157V0.365234H13.2823H14.0079V3.33157ZM6.99129 5.63038C8.12956 6.76783 9.06088 7.71353 9.06088 7.73193C9.06088 7.75032 8.83075 7.99501 8.5495 8.27565L8.03814 8.7859L5.93606 6.68514L3.83398 4.58438L4.34455 4.07335C4.62537 3.79227 4.87012 3.56228 4.88842 3.56228C4.90672 3.56228 5.85302 4.49292 6.99129 5.63038ZM20.9962 22.6047C18.6939 22.6113 18.094 22.6216 18.1075 22.6541C18.8366 24.4083 20.7375 29.0491 20.7299 29.0566C20.7241 29.0624 20.4229 29.1889 20.0607 29.3377C19.5349 29.5537 19.3964 29.5991 19.3738 29.563C19.3583 29.5381 18.5702 27.6341 17.6226 25.3319L15.8997 21.146L18.1199 21.1296L20.3402 21.1131L17.174 17.9491L14.0079 14.785V20.1656V25.5461H13.2823H12.5568V18.4022V11.2583L18.2294 16.9273L23.9019 22.5963L20.9962 22.6047ZM25.8807 12.9722V13.7137H22.929H19.9773V12.9722V12.2306H22.929H25.8807V12.9722ZM8.55754 17.6767C8.83438 17.9529 9.06088 18.1939 9.06088 18.2122C9.06088 18.2558 4.93225 22.382 4.88862 22.382C4.87022 22.382 4.6254 22.1521 4.34458 21.871L3.83405 21.36L5.92795 19.2672C7.07958 18.1162 8.0291 17.1745 8.03801 17.1745C8.04691 17.1745 8.28071 17.4005 8.55754 17.6767Z" fill="#6E6AFE"/>
<path d="M22.7289 4.58411L22.2183 4.07308C21.9375 3.792 21.6926 3.56201 21.6742 3.56201C21.6306 3.56201 17.502 7.68825 17.502 7.73185C17.502 7.75015 17.7321 7.99474 18.0133 8.27538L18.5247 8.78563L20.6268 6.68487L22.7289 4.58411Z" fill="#FFC302"/>
<path d="M6.58701 13.7136V12.9721V12.2305H3.6353H0.683594V12.9721V13.7136H3.6353H6.58701Z" fill="#FE3D80"/>
<path d="M53.0858 23.139H50.3238L43.0071 14.9985V23.139H40.7539V6.17969H43.0071V13.8598L50.0815 6.17969H52.8435L45.3572 14.4413L53.0858 23.139Z" fill="#15192A"/>
<path d="M64.4193 11.0252V23.139H62.3115V13.0603H58.0959V18.0028C58.0959 19.9733 57.6922 21.3542 56.8846 22.1457C56.0931 22.9371 54.9706 23.2844 53.5169 23.1875V21.2008C54.3407 21.2977 54.9544 21.1039 55.3582 20.6193C55.7782 20.1348 55.9881 19.2464 55.9881 17.9543V11.0252H64.4193Z" fill="#15192A"/>
<path d="M75.6941 11.0252H77.39V23.139H75.3064V14.6593L69.3222 23.139H67.6263V11.0252H69.7099V19.5049L75.6941 11.0252Z" fill="#15192A"/>
<path d="M90.7917 23.139H88.1508L82.6996 17.4213V23.139H80.5918V11.0252H82.6996V16.4037L87.9086 11.0252H90.5494L84.8074 16.8883L90.7917 23.139Z" fill="#15192A"/>
</svg>
